<?xml version="1.0" encoding="UTF-8"?>
<!DOCTYPE svg PUBLIC "-//W3C//DTD SVG 1.1//EN" "http://www.w3.org/Graphics/SVG/1.1/DTD/svg11.dtd">
<!-- Creator: CorelDRAW 2018 (64 Bit) -->
<svg xmlns="http://www.w3.org/2000/svg" xml:space="preserve" width="361.884mm" height="347.314mm" version="1.1" style="shape-rendering:geometricPrecision; text-rendering:geometricPrecision; image-rendering:optimizeQuality; fill-rule:evenodd; clip-rule:evenodd"
viewBox="0 0 172.2716 165.3359"
 xmlns:xlink="http://www.w3.org/1999/xlink">
 <defs>
  <style type="text/css">
   <![CDATA[
    .fil1 {fill:white}
    .fil0 {fill:white;fill-rule:nonzero}
   ]]>
  </style>
 </defs>
 <g id="Camada_x0020_1">
  <metadata id="CorelCorpID_0Corel-Layer"/>
  <g id="_1955310617120">
   <path class="fil0" d="M16.9125 146.0318c0.2745,0 0.3692,0.1537 0.284,0.4611l-0.5517 1.9912c-0.0852,0.3074 -0.2651,0.4611 -0.5395,0.4611l-7.7697 0c-0.4655,0 -0.8629,0.0454 -1.1924,0.1362 -0.3295,0.0908 -0.6138,0.2445 -0.8528,0.4611 -0.239,0.2166 -0.4486,0.51 -0.6288,0.8803 -0.1802,0.3703 -0.3457,0.8279 -0.4967,1.3729l-0.1162 0.4192 10.0612 0c0.2626,0 0.3513,0.1537 0.2661,0.4611l-0.4588 1.6559c-0.0852,0.3074 -0.2591,0.4611 -0.5216,0.4611l-10.0612 0 -1.51 5.4496c-0.0852,0.3074 -0.2591,0.4611 -0.5216,0.4611l-1.9334 0c-0.2745,0 -0.3692,-0.1537 -0.284,-0.4611l2.4043 -8.6774c0.2788,-1.0061 0.6075,-1.8585 0.9861,-2.5572 0.3785,-0.6986 0.8287,-1.2681 1.3505,-1.7082 0.5218,-0.4401 1.127,-0.7615 1.8158,-0.9642 0.6886,-0.2026 1.4865,-0.3039 2.3936,-0.3039l7.8771 0zm4.587 -1.048c0.2625,0 0.3512,0.1537 0.2661,0.4611l-4.1001 14.7977c-0.0852,0.3074 -0.2591,0.4611 -0.5216,0.4611l-1.7544 0c-0.2626,0 -0.3513,-0.1537 -0.2661,-0.4611l4.1001 -14.7977c0.0852,-0.3074 0.2591,-0.4611 0.5216,-0.4611l1.7544 0zm10.6662 4.213c0.7996,0 1.4517,0.0804 1.9561,0.241 0.5045,0.1607 0.8734,0.4123 1.1068,0.7546 0.2334,0.3424 0.3471,0.7825 0.3413,1.3205 -0.0059,0.538 -0.1133,1.1842 -0.3224,1.9388l-0.8363 3.0182c-0.2091,0.7546 -0.4597,1.4008 -0.752,1.9388 -0.2922,0.538 -0.65,0.9782 -1.073,1.3205 -0.4231,0.3424 -0.9304,0.5904 -1.522,0.7441 -0.5916,0.1537 -1.2872,0.2305 -2.0868,0.2305l-5.0664 0c-0.8116,0 -1.4676,-0.0768 -1.968,-0.2305 -0.5005,-0.1537 -0.8674,-0.4017 -1.1007,-0.7441 -0.2334,-0.3423 -0.3471,-0.7825 -0.3412,-1.3205 0.0058,-0.5379 0.1133,-1.1842 0.3223,-1.9388l0.8363 -3.0182c0.209,-0.7545 0.4597,-1.4008 0.752,-1.9388 0.2923,-0.538 0.6499,-0.9781 1.073,-1.3205 0.4231,-0.3423 0.9284,-0.5939 1.516,-0.7546 0.5876,-0.1607 1.2871,-0.241 2.0987,-0.241l5.0664 0zm-8.6372 6.7491c-0.1239,0.4471 -0.1967,0.8174 -0.2183,1.1108 -0.0216,0.2934 0.0179,0.5275 0.1187,0.7022 0.1008,0.1747 0.2659,0.3004 0.4952,0.3773 0.2294,0.0768 0.535,0.1152 0.9169,0.1152l4.5652 0c0.3938,0 0.7267,-0.0384 0.9986,-0.1152 0.2719,-0.0769 0.5067,-0.2027 0.7043,-0.3773 0.1976,-0.1747 0.3668,-0.4087 0.5078,-0.7022 0.141,-0.2934 0.2734,-0.6637 0.3973,-1.1108l0.5517 -1.9912c0.12,-0.4331 0.1908,-0.7965 0.2125,-1.0899 0.0216,-0.2934 -0.017,-0.531 -0.1158,-0.7126 -0.0989,-0.1817 -0.264,-0.3074 -0.4952,-0.3773 -0.2313,-0.0698 -0.5439,-0.1048 -0.9377,-0.1048l-4.5651 0c-0.3819,0 -0.7079,0.0349 -0.9779,0.1048 -0.27,0.0699 -0.5047,0.1957 -0.7043,0.3773 -0.1995,0.1817 -0.3697,0.4192 -0.5107,0.7126 -0.141,0.2934 -0.2715,0.6567 -0.3915,1.0899l-0.5517 1.9912zm24.2303 -6.7491c0.2148,0 0.2874,0.1258 0.2177,0.3773l-0.4878 1.7606c-0.0697,0.2515 -0.212,0.3773 -0.4268,0.3773l-4.7621 0c-0.3819,0 -0.7089,0.0384 -0.9808,0.1152 -0.2719,0.0769 -0.5067,0.2026 -0.7043,0.3773 -0.1976,0.1747 -0.3679,0.4122 -0.5107,0.7126 -0.143,0.3004 -0.2744,0.6672 -0.3944,1.1004l-1.7248 6.2251c-0.0852,0.3074 -0.2591,0.4611 -0.5216,0.4611l-1.7544 0c-0.2746,0 -0.3692,-0.1537 -0.284,-0.4611l1.8816 -6.791c0.209,-0.7545 0.4597,-1.4008 0.752,-1.9388 0.2923,-0.538 0.65,-0.9781 1.073,-1.3205 0.4231,-0.3423 0.9284,-0.5939 1.516,-0.7546 0.5875,-0.1607 1.2871,-0.241 2.0987,-0.241l5.0127 0zm3.9207 0c0.2625,0 0.3493,0.1607 0.2603,0.4821l-2.927 10.5638c-0.0852,0.3074 -0.2591,0.4611 -0.5216,0.4611l-1.7544 0c-0.2626,0 -0.3513,-0.1537 -0.2661,-0.4611l2.927 -10.5638c0.0891,-0.3214 0.2649,-0.4821 0.5275,-0.4821l1.7544 0zm1.1789 -4.2549c0.2625,0 0.3513,0.1537 0.2661,0.4611l-0.5517 1.9912c-0.0891,0.3214 -0.2649,0.4821 -0.5274,0.4821l-1.7544 0c-0.2745,0 -0.3673,-0.1607 -0.2782,-0.4821l0.5517 -1.9912c0.0852,-0.3074 0.265,-0.4611 0.5395,-0.4611l1.7544 0zm10.7083 4.2549c0.7997,0 1.4517,0.0804 1.9562,0.241 0.5045,0.1607 0.8734,0.4123 1.1067,0.7546 0.2334,0.3424 0.3471,0.7825 0.3413,1.3205 -0.0059,0.538 -0.1133,1.1842 -0.3224,1.9388l-0.8363 3.0182c-0.2091,0.7546 -0.4598,1.4008 -0.752,1.9388 -0.2923,0.538 -0.65,0.9782 -1.073,1.3205 -0.4231,0.3424 -0.9304,0.5904 -1.522,0.7441 -0.5916,0.1537 -1.2872,0.2305 -2.0869,0.2305l-6.7135 0 -1.1557 4.171c-0.0852,0.3074 -0.2591,0.4611 -0.5216,0.4611l-1.7544 0c-0.2745,0 -0.3692,-0.1537 -0.284,-0.4611l3.1651 -11.4232c0.209,-0.7545 0.4597,-1.4008 0.752,-1.9388 0.2923,-0.538 0.65,-0.9781 1.073,-1.3205 0.4231,-0.3423 0.9284,-0.5939 1.516,-0.7546 0.5875,-0.1607 1.2871,-0.241 2.0987,-0.241l5.0127 0zm-9.2049 8.9918l6.4628 0c0.3938,0 0.7257,-0.0349 0.9958,-0.1048 0.27,-0.0699 0.5047,-0.1957 0.7043,-0.3773 0.1995,-0.1817 0.3697,-0.4192 0.5107,-0.7127 0.141,-0.2934 0.2734,-0.6637 0.3973,-1.1108l0.5169 -1.8655c0.12,-0.4331 0.1918,-0.7999 0.2154,-1.1004 0.0236,-0.3004 -0.015,-0.538 -0.1158,-0.7126 -0.1008,-0.1747 -0.2659,-0.3004 -0.4952,-0.3773 -0.2294,-0.0768 -0.541,-0.1152 -0.9348,-0.1152l-4.5114 0c-0.3819,0 -0.7089,0.0384 -0.9808,0.1152 -0.2719,0.0769 -0.5067,0.2026 -0.7043,0.3773 -0.1976,0.1747 -0.3679,0.4122 -0.5107,0.7126 -0.143,0.3004 -0.2744,0.6672 -0.3944,1.1004l-1.1557 4.171zm23.5269 -8.9918c0.7996,0 1.4517,0.0804 1.9562,0.241 0.5045,0.1607 0.8734,0.4123 1.1067,0.7546 0.2334,0.3424 0.3471,0.7825 0.3413,1.3205 -0.0059,0.538 -0.1133,1.1842 -0.3224,1.9388l-1.5448 5.5753c-0.0929,0.3354 -0.1902,0.6113 -0.2921,0.8279 -0.1018,0.2166 -0.2208,0.3877 -0.3571,0.5135 -0.1363,0.1258 -0.2948,0.2131 -0.4754,0.262 -0.1806,0.0489 -0.4023,0.0734 -0.6648,0.0734l-8.5216 0c-0.5251,0 -0.9473,-0.0594 -1.2665,-0.1782 -0.3191,-0.1188 -0.5532,-0.2969 -0.7023,-0.5345 -0.149,-0.2375 -0.216,-0.545 -0.201,-0.9222 0.015,-0.3773 0.0942,-0.8245 0.2374,-1.3414l0.2788 -1.0061c0.12,-0.4332 0.2722,-0.8209 0.4566,-1.1633 0.1844,-0.3423 0.4169,-0.6323 0.6975,-0.8698 0.2807,-0.2375 0.6135,-0.4157 0.9984,-0.5345 0.385,-0.1188 0.8401,-0.1781 1.3652,-0.1781l7.2863 0 0.1103 -0.3983c0.0929,-0.3354 0.1425,-0.6218 0.1486,-0.8593 0.0062,-0.2375 -0.042,-0.4297 -0.1446,-0.5764 -0.1025,-0.1467 -0.2695,-0.255 -0.5007,-0.3249 -0.2313,-0.0699 -0.5438,-0.1048 -0.9377,-0.1048l-7.4833 0c-0.2148,0 -0.2874,-0.1258 -0.2177,-0.3773l0.4878 -1.7606c0.0697,-0.2515 0.212,-0.3773 0.4268,-0.3773l7.7339 0zm-1.368 9.2014c0.191,0 0.3398,-0.0524 0.4464,-0.1572 0.1066,-0.1048 0.1967,-0.29 0.2702,-0.5554l0.5111 -1.8445 -6.5523 0c-0.37,0 -0.6538,0.0874 -0.8514,0.262 -0.1976,0.1747 -0.3428,0.4297 -0.4358,0.765l-0.1219 0.4401c-0.1045,0.3773 -0.1064,0.6532 -0.0056,0.8279 0.1008,0.1747 0.3362,0.262 0.7062,0.262l6.0332 0zm25.3212 -12.3664c1.2292,0 2.0241,0.2864 2.3846,0.8593 0.3604,0.5729 0.38,1.4393 0.0586,2.599l-0.2788 1.0061c-0.3252,1.1738 -0.953,2.0611 -1.8833,2.6619 0.6687,0.5589 0.8307,1.4602 0.4861,2.7038l-0.3368 1.2157c-0.1549,0.5589 -0.3479,1.062 -0.5792,1.5091 -0.2314,0.4471 -0.5129,0.8279 -0.8446,1.1423 -0.3318,0.3144 -0.7238,0.5554 -1.1761,0.7231 -0.4522,0.1677 -0.9767,0.2515 -1.5735,0.2515l-10.634 0c-0.3581,0 -0.479,-0.2096 -0.3629,-0.6288l3.7168 -13.4144c0.1162,-0.4192 0.3533,-0.6288 0.7113,-0.6288l10.3119 0zm-10.4329 8.384l-0.8653 3.123c-0.0503,0.1817 0.0021,0.2725 0.1572,0.2725l7.34 0c0.4774,0 0.8456,-0.1013 1.1047,-0.3039 0.2591,-0.2026 0.4505,-0.5275 0.5744,-0.9746l0.2207 -0.7965c0.12,-0.4332 0.1006,-0.7616 -0.0583,-0.9851 -0.1588,-0.2236 -0.5366,-0.3354 -1.1334,-0.3354l-7.34 0zm0.633 -2.2846l7.34 0c0.5967,0 1.0316,-0.1048 1.3045,-0.3144 0.2729,-0.2096 0.4655,-0.517 0.5778,-0.9222l0.1975 -0.7126c0.12,-0.4332 0.1037,-0.7511 -0.0491,-0.9537 -0.1527,-0.2026 -0.4618,-0.3039 -0.9273,-0.3039l-7.3221 0c-0.1552,0 -0.2579,0.0908 -0.3082,0.2725l-0.8131 2.9344zm16.6389 -2.9344c0.2625,0 0.3493,0.1607 0.2603,0.4821l-2.927 10.5638c-0.0852,0.3074 -0.2591,0.4611 -0.5216,0.4611l-1.7544 0c-0.2626,0 -0.3513,-0.1537 -0.2661,-0.4611l2.927 -10.5638c0.089,-0.3214 0.2649,-0.4821 0.5275,-0.4821l1.7544 0zm1.179 -4.2549c0.2625,0 0.3512,0.1537 0.2661,0.4611l-0.5517 1.9912c-0.0891,0.3214 -0.2649,0.4821 -0.5274,0.4821l-1.7544 0c-0.2745,0 -0.3672,-0.1607 -0.2782,-0.4821l0.5517 -1.9912c0.0852,-0.3074 0.265,-0.4611 0.5395,-0.4611l1.7544 0zm4.8041 0.0419c0.2626,0 0.3513,0.1537 0.2661,0.4611l-2.2998 8.3001 3.2941 0c0.2506,0 0.4653,-0.0105 0.6442,-0.0314 0.1788,-0.0209 0.3427,-0.0629 0.4914,-0.1258 0.1487,-0.0629 0.2892,-0.1502 0.4216,-0.262 0.1324,-0.1118 0.2855,-0.2655 0.459,-0.4611l2.9227 -3.3117c0.1064,-0.1258 0.2062,-0.2166 0.2993,-0.2725 0.0931,-0.0559 0.2052,-0.0838 0.3365,-0.0838l2.023 0c0.1313,0 0.1983,0.0594 0.2013,0.1781 0.0029,0.1188 -0.0568,0.2481 -0.1791,0.3878l-3.3374 3.7099c-0.5168,0.5729 -1.0106,1.02 -1.4816,1.3414 0.4003,0.3214 0.7001,0.7685 0.8994,1.3414l1.4271 4.0243c0.0407,0.1118 0.0236,0.227 -0.051,0.3458 -0.0747,0.1188 -0.1777,0.1782 -0.309,0.1782l-2.0051 0c-0.1551,0 -0.2627,-0.0209 -0.3227,-0.0629 -0.06,-0.0419 -0.1103,-0.1188 -0.151,-0.2305l-1.2084 -3.5213c-0.1219,-0.3354 -0.2878,-0.5659 -0.4976,-0.6917 -0.2098,-0.1258 -0.5593,-0.1887 -1.0487,-0.1887l-3.4552 0 -1.1731 4.2339c-0.0852,0.3074 -0.2591,0.4611 -0.5216,0.4611l-1.7544 0c-0.2745,0 -0.3692,-0.1537 -0.284,-0.4611l4.1001 -14.7977c0.0852,-0.3074 0.2651,-0.4611 0.5395,-0.4611l1.7544 0zm19.6533 4.213c0.6087,0 1.0965,0.0594 1.4634,0.1781 0.3669,0.1188 0.629,0.3144 0.7862,0.5869 0.1572,0.2725 0.2226,0.6288 0.1961,1.069 -0.0265,0.4401 -0.1269,0.9746 -0.3011,1.6034l-0.5517 1.9912c-0.1239,0.4471 -0.2936,0.758 -0.5091,0.9327 -0.2155,0.1747 -0.4963,0.262 -0.8424,0.262l-9.0408 0 -0.1394 0.503c-0.1819,0.6567 -0.1793,1.1318 0.0079,1.4253 0.1872,0.2934 0.6687,0.4401 1.4445,0.4401l7.4653 0c0.2148,0 0.2874,0.1258 0.2177,0.3773l-0.4878 1.7606c-0.0696,0.2515 -0.2119,0.3773 -0.4267,0.3773l-7.716 0c-0.8116,0 -1.4676,-0.0768 -1.968,-0.2305 -0.5005,-0.1537 -0.8673,-0.4017 -1.1007,-0.7441 -0.2334,-0.3423 -0.3471,-0.7825 -0.3413,-1.3205 0.0058,-0.5379 0.1133,-1.1842 0.3224,-1.9388l0.8363 -3.0182c0.2091,-0.7545 0.4597,-1.4008 0.752,-1.9388 0.2922,-0.538 0.6499,-0.9781 1.073,-1.3205 0.4231,-0.3423 0.9284,-0.5939 1.516,-0.7546 0.5876,-0.1607 1.2872,-0.241 2.0987,-0.241l5.2454 0zm-8.2824 4.7579l7.2505 0c0.2029,0 0.3373,-0.1188 0.4031,-0.3563l0.2439 -0.8803c0.12,-0.4332 0.1276,-0.7406 0.0228,-0.9222 -0.1048,-0.1817 -0.3661,-0.2725 -0.7838,-0.2725l-4.4935 0c-0.7758,0 -1.3377,0.1432 -1.6856,0.4297 -0.3478,0.2864 -0.6148,0.765 -0.8006,1.4357l-0.1568 0.5659zm32.9696 -7.9228c0.2745,0 0.3692,0.1537 0.284,0.4611l-0.5517 1.9912c-0.0852,0.3074 -0.265,0.4611 -0.5395,0.4611l-7.7697 0c-0.4655,0 -0.8629,0.0454 -1.1924,0.1362 -0.3295,0.0908 -0.6138,0.2445 -0.8528,0.4611 -0.2391,0.2166 -0.4486,0.51 -0.6288,0.8803 -0.1802,0.3703 -0.3458,0.8279 -0.4967,1.3729l-0.1162 0.4192 10.0612 0c0.2625,0 0.3513,0.1537 0.2661,0.4611l-0.4588 1.6559c-0.0852,0.3074 -0.2591,0.4611 -0.5216,0.4611l-10.0612 0 -1.51 5.4496c-0.0852,0.3074 -0.2591,0.4611 -0.5216,0.4611l-1.9334 0c-0.2745,0 -0.3692,-0.1537 -0.284,-0.4611l2.4043 -8.6774c0.2788,-1.0061 0.6074,-1.8585 0.986,-2.5572 0.3786,-0.6986 0.8287,-1.2681 1.3505,-1.7082 0.5218,-0.4401 1.127,-0.7615 1.8157,-0.9642 0.6887,-0.2026 1.4866,-0.3039 2.3936,-0.3039l7.8771 0zm3.4197 3.165c0.2625,0 0.3493,0.1607 0.2603,0.4821l-2.927 10.5638c-0.0852,0.3074 -0.2591,0.4611 -0.5216,0.4611l-1.7544 0c-0.2626,0 -0.3513,-0.1537 -0.2661,-0.4611l2.9269 -10.5638c0.0891,-0.3214 0.2649,-0.4821 0.5275,-0.4821l1.7544 0zm1.1789 -4.2549c0.2626,0 0.3513,0.1537 0.2661,0.4611l-0.5517 1.9912c-0.0891,0.3214 -0.2649,0.4821 -0.5274,0.4821l-1.7544 0c-0.2745,0 -0.3672,-0.1607 -0.2782,-0.4821l0.5517 -1.9912c0.0852,-0.3074 0.265,-0.4611 0.5395,-0.4611l1.7544 0zm2.688 4.2549l0.7666 -2.7667c0.0852,-0.3074 0.259,-0.4611 0.5216,-0.4611l1.7723 0c0.2625,0 0.3513,0.1537 0.2661,0.4611l-0.7666 2.7667 3.1329 0c0.2149,0 0.2874,0.1258 0.2177,0.3773l-0.4762 1.7187c-0.0697,0.2515 -0.2119,0.3773 -0.4268,0.3773l-3.133 0 -1.3473 4.8627c-0.1626,0.5869 -0.1802,1.0165 -0.0528,1.289 0.1274,0.2725 0.4894,0.4087 1.0862,0.4087l1.7366 0c0.2148,0 0.2874,0.1258 0.2177,0.3773l-0.4762 1.7187c-0.0697,0.2515 -0.212,0.3773 -0.4268,0.3773l-2.1662 0c-0.7161,0 -1.2856,-0.0768 -1.7084,-0.2305 -0.4229,-0.1537 -0.7281,-0.3983 -0.9157,-0.7336 -0.1876,-0.3353 -0.2615,-0.7685 -0.2218,-1.2995 0.0397,-0.531 0.1622,-1.1668 0.3674,-1.9074l1.3473 -4.8627 -1.7008 0c-0.2148,0 -0.2874,-0.1258 -0.2177,-0.3773l0.4762 -1.7187c0.0697,-0.2515 0.212,-0.3773 0.4268,-0.3773l1.7008 0z"/>
   <path class="fil1" d="M116.2144 78.1806c7.2827,-2.7906 16.4237,-9.3246 30.5961,-2.2275 7.6489,3.8304 14.7219,11.3333 16.1634,22.4563 2.1499,16.5893 -8.9382,30.3141 -24.0259,33.2543 -8.3878,1.6344 -10.7891,-0.527 -17.6088,-1.7513 5.4789,7.044 25.1914,7.6703 36.3903,-0.1393 22.0003,-15.342 18.4412,-48.7414 -6.6403,-58.71 -6.0179,-2.392 -13.2399,-2.9256 -19.7886,-1.4293 -6.2376,1.4255 -12.4163,4.5038 -15.0863,8.5467z"/>
   <path class="fil1" d="M93.8656 67.3678c1.8893,-2.1959 3.3338,-4.1537 1.9993,-7.3838 -0.9793,-2.9349 -8.1651,-3.0493 -17.158,-17.5729 2.0192,0.58 7.6484,2.7704 16.7586,6.6222 5.7771,2.4426 15.7506,1.7438 17.9885,6.2753 3.783,7.6593 -6.8685,13.8405 -12.4405,19.5127 -4.93,5.0184 -10.5651,13.0517 -9.8695,20.2981 0.5807,6.0497 4.1637,8.8441 6.2705,12.2663 -12.0417,-3.6677 -13.178,-16.2197 -14.3683,-18.9146 6.7918,-3.2899 12.7797,-8.866 10.0067,-16.1999 -0.343,-0.9069 -0.6595,-1.5859 -1.1352,-2.6397l1.9478 -2.2637z"/>
   <path class="fil1" d="M135.4328 27.8018c-0.2073,-0.1867 -0.4563,-0.7658 -0.5685,-0.6149l-2.0965 -3.7459c-1.6339,-4.7 -3.2063,-8.3621 -6.7438,-12.0858 -1.5741,-1.6571 -11.5701,-10.1254 -13.9718,-11.3393 6.0433,-0.3339 17.7159,4.6596 22.0813,7.3471 10.5558,6.4986 5.5107,11.7749 1.2994,20.4388z"/>
   <path class="fil1" d="M93.9477 72.3238c2.773,7.3339 -3.5833,13.7522 -10.3752,17.0421 -19.9218,9.6496 -22.3215,25.8866 -13.0667,36.8563 -34.3531,-15.7947 9.1567,-46.1019 5.9846,-52.1475 -3.1361,-5.7597 -18.4163,-19.6959 -24.3823,-28.3419 -4.8948,-7.0938 -1.0429,-11.2267 -0.123,-18.2084 2.2635,-11.0594 18.9307,-8.1332 28.6916,-10.8167 17.6381,-4.8487 45.0061,-12.3349 47.5433,12.6357 0.8593,8.4563 1.4394,14.2187 7.5288,17.5612 7.0333,3.8606 11.0841,1.621 18.7073,1.4961 -4.5495,3.1208 -9.7196,5.1286 -17.0634,4.5195 -11.369,-0.9428 -17.1607,-8.3898 -19.012,-19.3067 -4.7333,2.1851 -10.919,0.1712 -18.6576,-1.551 -14.7664,-3.2863 -29.0387,-2.1129 -24.0309,13.9928 1.5115,4.861 15.6986,19.5073 18.2554,26.2685z"/>
   <path class="fil1" d="M-0 78.1806c7.2827,-2.7906 16.4237,-9.3246 30.5961,-2.2275 7.649,3.8304 14.7219,11.3333 16.1634,22.4563 2.1499,16.5893 -8.9382,30.3141 -24.0259,33.2543 -8.3878,1.6344 -10.7891,-0.527 -17.6087,-1.7513 5.4789,7.044 25.1914,7.6703 36.3903,-0.1393 22.0002,-15.342 18.4412,-48.7414 -6.6403,-58.71 -6.0178,-2.392 -13.2399,-2.9256 -19.7886,-1.4293 -6.2377,1.4255 -12.4164,4.5038 -15.0863,8.5467z"/>
   <g>
    <path class="fil0" d="M62.3523 25.2744c3.2893,0 6.2675,1.3334 8.4233,3.4892 2.1557,2.1558 3.4891,5.134 3.4891,8.4233 0,3.2893 -1.3334,6.2675 -3.4891,8.4233 -2.1558,2.1557 -5.134,3.4891 -8.4233,3.4891 -3.2893,0 -6.2675,-1.3334 -8.4233,-3.4891 -2.1558,-2.1558 -3.4892,-5.134 -3.4892,-8.4233 0,-3.2893 1.3334,-6.2675 3.4892,-8.4233 2.1558,-2.1558 5.134,-3.4892 8.4233,-3.4892zm7.6151 4.2973c-1.9488,-1.9488 -4.6412,-3.1542 -7.6151,-3.1542 -2.9739,0 -5.6664,1.2054 -7.6151,3.1542 -1.9487,1.9487 -3.1542,4.6412 -3.1542,7.6151 0,2.974 1.2054,5.6664 3.1542,7.6151 1.9487,1.9487 4.6412,3.1542 7.6151,3.1542 2.974,0 5.6664,-1.2054 7.6151,-3.1542 1.9488,-1.9488 3.1542,-4.6412 3.1542,-7.6151 0,-2.9739 -1.2055,-5.6664 -3.1542,-7.6151z"/>
    <path class="fil0" d="M62.3523 28.5147c2.3945,0 4.5627,0.9707 6.1321,2.5402 1.5693,1.5694 2.5401,3.7375 2.5401,6.132 0,2.3945 -0.9708,4.5627 -2.5401,6.1321 -1.5694,1.5693 -3.7375,2.5401 -6.1321,2.5401 -2.3945,0 -4.5627,-0.9708 -6.132,-2.5401 -1.5694,-1.5694 -2.5402,-3.7375 -2.5402,-6.1321 0,-2.3945 0.9707,-4.5627 2.5402,-6.132 1.5694,-1.5694 3.7375,-2.5402 6.132,-2.5402zm5.3239 3.3483c-1.3624,-1.3624 -3.2448,-2.2052 -5.3239,-2.2052 -2.0792,0 -3.9615,0.8428 -5.3239,2.2052 -1.3624,1.3624 -2.2052,3.2447 -2.2052,5.3239 0,2.0792 0.8427,3.9615 2.2052,5.3239 1.3623,1.3623 3.2447,2.2051 5.3239,2.2051 2.0792,0 3.9616,-0.8427 5.3239,-2.2051 1.3624,-1.3623 2.2051,-3.2448 2.2051,-5.3239 0,-2.0792 -0.8428,-3.9616 -2.2051,-5.3239z"/>
    <path class="fil0" d="M85.5448 67.301c2.3649,0 4.5062,0.9587 6.0561,2.5086 1.5499,1.55 2.5086,3.6912 2.5086,6.0561 0,2.3649 -0.9587,4.5062 -2.5086,6.0561 -1.5499,1.5499 -3.6912,2.5086 -6.0561,2.5086 -2.3649,0 -4.5062,-0.9587 -6.0561,-2.5086 -1.5499,-1.5499 -2.5086,-3.6912 -2.5086,-6.0561 0,-2.3649 0.9587,-4.5062 2.5086,-6.0561 1.55,-1.5499 3.6912,-2.5086 6.0561,-2.5086zm5.4751 3.0896c-1.4011,-1.4011 -3.3369,-2.2678 -5.4751,-2.2678 -2.1382,0 -4.074,0.8667 -5.4751,2.2678 -1.401,1.4011 -2.2678,3.337 -2.2678,5.4751 0,2.1382 0.8666,4.074 2.2678,5.4751 1.4011,1.401 3.337,2.2678 5.4751,2.2678 2.1382,0 4.074,-0.8666 5.4751,-2.2678 1.4011,-1.4011 2.2678,-3.3369 2.2678,-5.4751 0,-2.1382 -0.8667,-4.074 -2.2678,-5.4751z"/>
    <path class="fil0" d="M85.5448 69.6306c1.7216,0 3.2804,0.698 4.4088,1.8263 1.1283,1.1283 1.8263,2.6872 1.8263,4.4088 0,1.7216 -0.698,3.2804 -1.8263,4.4088 -1.1284,1.1283 -2.6872,1.8263 -4.4088,1.8263 -1.7217,0 -3.2805,-0.698 -4.4088,-1.8263 -1.1284,-1.1284 -1.8263,-2.6872 -1.8263,-4.4088 0,-1.7217 0.698,-3.2805 1.8263,-4.4088 1.1283,-1.1284 2.6872,-1.8263 4.4088,-1.8263zm3.8278 2.4074c-0.9796,-0.9796 -2.3329,-1.5855 -3.8278,-1.5855 -1.4949,0 -2.8482,0.6059 -3.8278,1.5855 -0.9795,0.9795 -1.5855,2.3328 -1.5855,3.8278 0,1.4949 0.6059,2.8482 1.5855,3.8278 0.9794,0.9795 2.3328,1.5854 3.8278,1.5854 1.4949,0 2.8483,-0.6059 3.8278,-1.5854 0.9795,-0.9795 1.5854,-2.3329 1.5854,-3.8278 0,-1.4949 -0.6059,-2.8483 -1.5854,-3.8278z"/>
    <path class="fil0" d="M122.2726 23.8639c1.4885,0 2.8363,0.6034 3.8118,1.579 0.9756,0.9756 1.579,2.3233 1.579,3.8118 0,1.4885 -0.6034,2.8363 -1.579,3.8118 -0.9755,0.9756 -2.3233,1.579 -3.8118,1.579 -1.4885,0 -2.8362,-0.6034 -3.8118,-1.579 -0.9756,-0.9755 -1.579,-2.3233 -1.579,-3.8118 0,-1.4885 0.6034,-2.8363 1.579,-3.8118 0.9756,-0.9756 2.3233,-1.579 3.8118,-1.579zm3.4461 1.9447c-0.8819,-0.8819 -2.1002,-1.4274 -3.4461,-1.4274 -1.3458,0 -2.5642,0.5455 -3.4461,1.4274 -0.8819,0.8819 -1.4274,2.1003 -1.4274,3.4461 0,1.3458 0.5454,2.5642 1.4274,3.4461 0.8819,0.8819 2.1003,1.4274 3.4461,1.4274 1.3459,0 2.5642,-0.5454 3.4461,-1.4274 0.8819,-0.8819 1.4274,-2.1002 1.4274,-3.4461 0,-1.3458 -0.5455,-2.5642 -1.4274,-3.4461z"/>
    <path class="fil0" d="M122.2726 25.3302c1.0836,0 2.0648,0.4393 2.775,1.1495 0.7102,0.7102 1.1495,1.6913 1.1495,2.7749 0,1.0836 -0.4393,2.0647 -1.1495,2.7749 -0.7102,0.7102 -1.6914,1.1495 -2.775,1.1495 -1.0836,0 -2.0647,-0.4393 -2.7749,-1.1495 -0.7102,-0.7102 -1.1495,-1.6914 -1.1495,-2.7749 0,-1.0836 0.4393,-2.0648 1.1495,-2.7749 0.7102,-0.7102 1.6913,-1.1495 2.7749,-1.1495zm2.4093 1.5152c-0.6166,-0.6166 -1.4683,-0.9979 -2.4093,-0.9979 -0.9409,0 -1.7927,0.3814 -2.4092,0.9979 -0.6165,0.6165 -0.9979,1.4683 -0.9979,2.4092 0,0.9409 0.3814,1.7927 0.9979,2.4092 0.6165,0.6165 1.4683,0.9979 2.4092,0.9979 0.9409,0 1.7928,-0.3814 2.4093,-0.9979 0.6165,-0.6165 0.9979,-1.4683 0.9979,-2.4092 0,-0.9409 -0.3814,-1.7928 -0.9979,-2.4092z"/>
    <path class="fil0" d="M128.4547 41.7995c0.9793,0 1.866,0.397 2.5078,1.0388 0.6418,0.6418 1.0388,1.5285 1.0388,2.5078 0,0.9793 -0.397,1.8659 -1.0388,2.5077 -0.6418,0.6418 -1.5285,1.0388 -2.5078,1.0388 -0.9793,0 -1.8659,-0.397 -2.5077,-1.0388 -0.6418,-0.6418 -1.0388,-1.5285 -1.0388,-2.5077 0,-0.9793 0.397,-1.8659 1.0388,-2.5078 0.6418,-0.6418 1.5285,-1.0388 2.5077,-1.0388zm2.2672 1.2794c-0.5802,-0.5802 -1.3818,-0.939 -2.2672,-0.939 -0.8853,0 -1.6869,0.3589 -2.2671,0.939 -0.5802,0.5802 -0.939,1.3818 -0.939,2.2672 0,0.8854 0.3589,1.6869 0.939,2.2671 0.5802,0.5802 1.3818,0.939 2.2671,0.939 0.8854,0 1.687,-0.3589 2.2672,-0.939 0.5802,-0.5802 0.939,-1.3818 0.939,-2.2671 0,-0.8854 -0.3589,-1.687 -0.939,-2.2672z"/>
    <path class="fil0" d="M128.4547 42.7642c0.7129,0 1.3584,0.289 1.8257,0.7562 0.4672,0.4672 0.7562,1.1127 0.7562,1.8256 0,0.7129 -0.289,1.3583 -0.7562,1.8256 -0.4673,0.4672 -1.1127,0.7562 -1.8257,0.7562 -0.7129,0 -1.3583,-0.289 -1.8256,-0.7562 -0.4672,-0.4673 -0.7562,-1.1127 -0.7562,-1.8256 0,-0.7129 0.289,-1.3584 0.7562,-1.8256 0.4672,-0.4672 1.1127,-0.7562 1.8256,-0.7562zm1.5851 0.9968c-0.4056,-0.4056 -0.966,-0.6565 -1.5851,-0.6565 -0.619,0 -1.1794,0.2509 -1.585,0.6565 -0.4056,0.4056 -0.6565,0.966 -0.6565,1.585 0,0.619 0.2509,1.1794 0.6565,1.585 0.4056,0.4055 0.966,0.6565 1.585,0.6565 0.619,0 1.1794,-0.2509 1.5851,-0.6565 0.4056,-0.4056 0.6565,-0.966 0.6565,-1.585 0,-0.619 -0.2509,-1.1794 -0.6565,-1.585z"/>
    <path class="fil0" d="M141.0499 49.1601c0.5327,0 1.0151,0.2159 1.3642,0.5651 0.3491,0.3492 0.5651,0.8315 0.5651,1.3642 0,0.5327 -0.216,1.0151 -0.5651,1.3642 -0.3491,0.3491 -0.8315,0.5651 -1.3642,0.5651 -0.5327,0 -1.0151,-0.216 -1.3642,-0.5651 -0.3491,-0.3491 -0.5651,-0.8315 -0.5651,-1.3642 0,-0.5327 0.2159,-1.0151 0.5651,-1.3642 0.3492,-0.3491 0.8315,-0.5651 1.3642,-0.5651zm1.2334 0.696c-0.3156,-0.3156 -0.7517,-0.5108 -1.2334,-0.5108 -0.4817,0 -0.9177,0.1952 -1.2333,0.5108 -0.3156,0.3156 -0.5108,0.7517 -0.5108,1.2333 0,0.4817 0.1952,0.9178 0.5108,1.2334 0.3156,0.3156 0.7517,0.5108 1.2333,0.5108 0.4817,0 0.9178,-0.1952 1.2334,-0.5108 0.3156,-0.3156 0.5108,-0.7517 0.5108,-1.2334 0,-0.4817 -0.1952,-0.9177 -0.5108,-1.2333z"/>
    <path class="fil0" d="M141.0499 49.6849c0.3878,0 0.739,0.1572 0.9932,0.4114 0.2542,0.2542 0.4114,0.6053 0.4114,0.9931 0,0.3878 -0.1572,0.739 -0.4114,0.9932 -0.2542,0.2542 -0.6053,0.4114 -0.9932,0.4114 -0.3878,0 -0.739,-0.1572 -0.9931,-0.4114 -0.2542,-0.2542 -0.4114,-0.6053 -0.4114,-0.9932 0,-0.3878 0.1572,-0.739 0.4114,-0.9931 0.2542,-0.2542 0.6053,-0.4114 0.9931,-0.4114zm0.8623 0.5423c-0.2207,-0.2206 -0.5255,-0.3571 -0.8623,-0.3571 -0.3368,0 -0.6416,0.1365 -0.8623,0.3571 -0.2206,0.2206 -0.3571,0.5255 -0.3571,0.8623 0,0.3368 0.1365,0.6416 0.3571,0.8623 0.2206,0.2206 0.5255,0.3571 0.8623,0.3571 0.3368,0 0.6417,-0.1365 0.8623,-0.3571 0.2206,-0.2206 0.3571,-0.5255 0.3571,-0.8623 0,-0.3368 -0.1365,-0.6416 -0.3571,-0.8623z"/>
    <path class="fil0" d="M65.1207 95.2432c1.1074,0 2.1101,0.4489 2.8358,1.1747 0.7258,0.7258 1.1747,1.7285 1.1747,2.8358 0,1.1074 -0.4489,2.1101 -1.1747,2.8358 -0.7258,0.7258 -1.7284,1.1747 -2.8358,1.1747 -1.1074,0 -2.1101,-0.4489 -2.8358,-1.1747 -0.7258,-0.7258 -1.1747,-1.7284 -1.1747,-2.8358 0,-1.1074 0.4489,-2.1101 1.1747,-2.8358 0.7258,-0.7258 1.7285,-1.1747 2.8358,-1.1747zm2.5638 1.4467c-0.6561,-0.6561 -1.5625,-1.0619 -2.5638,-1.0619 -1.0012,0 -1.9077,0.4058 -2.5638,1.0619 -0.656,0.6561 -1.0619,1.5626 -1.0619,2.5638 0,1.0013 0.4058,1.9077 1.0619,2.5638 0.6561,0.656 1.5626,1.0619 2.5638,1.0619 1.0013,0 1.9077,-0.4058 2.5638,-1.0619 0.6561,-0.6561 1.0619,-1.5625 1.0619,-2.5638 0,-1.0012 -0.4058,-1.9077 -1.0619,-2.5638z"/>
    <path class="fil0" d="M65.1207 96.3341c0.8062,0 1.5361,0.3268 2.0644,0.8552 0.5284,0.5284 0.8552,1.2583 0.8552,2.0644 0,0.8062 -0.3268,1.5361 -0.8552,2.0644 -0.5284,0.5284 -1.2583,0.8552 -2.0644,0.8552 -0.8062,0 -1.5361,-0.3268 -2.0644,-0.8552 -0.5284,-0.5284 -0.8552,-1.2583 -0.8552,-2.0644 0,-0.8062 0.3268,-1.5361 0.8552,-2.0644 0.5284,-0.5284 1.2583,-0.8552 2.0644,-0.8552zm1.7924 1.1272c-0.4587,-0.4587 -1.0924,-0.7424 -1.7924,-0.7424 -0.7,0 -1.3337,0.2838 -1.7924,0.7424 -0.4586,0.4587 -0.7424,1.0924 -0.7424,1.7924 0,0.7 0.2837,1.3337 0.7424,1.7924 0.4587,0.4586 1.0924,0.7424 1.7924,0.7424 0.7,0 1.3337,-0.2837 1.7924,-0.7424 0.4587,-0.4587 0.7424,-1.0924 0.7424,-1.7924 0,-0.7 -0.2838,-1.3337 -0.7424,-1.7924z"/>
   </g>
  </g>
 </g>
</svg>
