<?xml version="1.0" encoding="UTF-8"?>
<!DOCTYPE svg PUBLIC "-//W3C//DTD SVG 1.1//EN" "http://www.w3.org/Graphics/SVG/1.1/DTD/svg11.dtd">
<!-- Creator: CorelDRAW 2018 (64 Bit) -->
<svg xmlns="http://www.w3.org/2000/svg" xml:space="preserve" width="361.884mm" height="284.459mm" version="1.1" style="shape-rendering:geometricPrecision; text-rendering:geometricPrecision; image-rendering:optimizeQuality; fill-rule:evenodd; clip-rule:evenodd"
viewBox="0 0 7787.5407 6121.4084"
 xmlns:xlink="http://www.w3.org/1999/xlink">
 <defs>
  <style type="text/css">
   <![CDATA[
    .fil0 {fill:#3394C2}
   ]]>
  </style>
 </defs>
 <g id="Camada_x0020_1">
  <metadata id="CorelCorpID_0Corel-Layer"/>
  <g id="_2635665029376">
   <path class="fil0" d="M5253.4733 3534.1535c329.2131,-126.147 742.4316,-421.5186 1383.0978,-100.6938 345.7701,173.1519 665.5039,512.322 730.6669,1015.1389 97.1861,749.9204 -404.0513,1370.3497 -1086.0928,1503.2624 -379.1705,73.8849 -487.721,-23.822 -796.0043,-79.1679 247.6759,318.4232 1138.7768,346.7342 1645.026,-6.2987 994.5233,-693.5351 833.6353,-2203.3545 -300.1747,-2653.9867 -272.0381,-108.1288 -598.5117,-132.2521 -894.544,-64.61 -281.9714,64.4378 -561.2809,203.5955 -681.9749,386.3558z"/>
   <path class="fil0" d="M4243.1934 3045.363c85.4042,-99.267 150.705,-187.7679 90.3795,-333.7838 -44.2698,-132.6738 -369.1037,-137.8428 -775.6254,-794.3839 91.279,26.2193 345.7443,125.2346 757.5705,299.357 261.1535,110.4163 712.0074,78.83 813.1725,283.6758 171.0086,346.2393 -310.4912,625.6606 -562.3741,882.0713 -222.8618,226.858 -477.5961,590.0029 -446.1519,917.5741 26.2494,273.4756 188.222,399.7969 283.4584,554.498 -544.3473,-165.7966 -595.7099,-733.2105 -649.5193,-855.0343 307.0244,-148.7187 577.7067,-400.7868 452.3538,-732.3153 -15.5048,-40.9945 -29.813,-71.692 -51.3153,-119.3296l88.0511 -102.3293z"/>
   <path class="fil0" d="M6122.2391 1256.7829c-9.3696,-8.4378 -20.6264,-34.6183 -25.7007,-27.7967l-94.7716 -169.3344c-73.859,-212.4658 -144.9421,-378.0084 -304.8531,-546.3378 -71.1583,-74.9092 -523.0258,-457.7207 -631.5957,-512.5932 273.1894,-15.0937 800.8461,210.6388 998.1838,332.1268 477.1743,293.7706 249.1112,532.2856 58.7373,923.9352z"/>
   <path class="fil0" d="M4246.9055 3269.3998c125.3529,331.5286 -161.9833,621.6688 -469.0098,770.3875 -900.5673,436.2099 -1009.0446,1170.2038 -590.6808,1666.0914 -1552.9335,-714.0001 413.9287,-2084.0377 270.536,-2357.3282 -141.768,-260.3659 -832.5099,-890.3541 -1102.2002,-1281.1967 -221.2694,-320.6763 -47.1426,-507.5017 -5.5606,-823.1102 102.3207,-499.9419 855.7638,-367.6619 1297.0028,-488.967 797.3299,-219.1842 2034.5,-557.5989 2149.1943,571.1971 38.8448,382.2693 65.0662,642.7578 340.3408,793.8523 317.939,174.5184 501.0588,73.278 845.6625,67.6313 -205.6592,141.0772 -439.3733,231.8397 -771.3494,204.3035 -513.9338,-42.6193 -775.7502,-379.263 -859.4371,-872.7577 -213.97,98.7764 -493.5915,7.7384 -843.4159,-70.1147 -667.516,-148.5552 -1312.6926,-95.5119 -1086.3167,632.5426 68.3285,219.7394 709.6553,881.826 825.2341,1187.4688z"/>
   <path class="fil0" d="M-0 3534.1535c329.2131,-126.147 742.4316,-421.5186 1383.0978,-100.6938 345.7723,173.1519 665.5039,512.322 730.6669,1015.1389 97.1883,749.9204 -404.0513,1370.3497 -1086.0928,1503.2624 -379.1705,73.8849 -487.721,-23.822 -796.0021,-79.1679 247.6759,318.4232 1138.7768,346.7342 1645.026,-6.2987 994.5212,-693.5351 833.6332,-2203.3545 -300.1769,-2653.9867 -272.0359,-108.1288 -598.5117,-132.2521 -894.5418,-64.61 -281.9736,64.4378 -561.2831,203.5955 -681.977,386.3558z"/>
  </g>
 </g>
</svg>
