<?xml version="1.0" encoding="UTF-8"?>
<!DOCTYPE svg PUBLIC "-//W3C//DTD SVG 1.1//EN" "http://www.w3.org/Graphics/SVG/1.1/DTD/svg11.dtd">
<!-- Creator: CorelDRAW 2018 (64 Bit) -->
<svg xmlns="http://www.w3.org/2000/svg" xml:space="preserve" width="361.884mm" height="284.459mm" version="1.1" style="shape-rendering:geometricPrecision; text-rendering:geometricPrecision; image-rendering:optimizeQuality; fill-rule:evenodd; clip-rule:evenodd"
viewBox="0 0 2937.5602 2309.0737"
 xmlns:xlink="http://www.w3.org/1999/xlink">
 <defs>
  <style type="text/css">
   <![CDATA[
    .fil0 {fill:white}
   ]]>
  </style>
 </defs>
 <g id="Camada_x0020_1">
  <metadata id="CorelCorpID_0Corel-Layer"/>
  <g id="_2635672802912">
   <path class="fil0" d="M1981.6774 1333.128c124.1834,-47.5843 280.0547,-159.0022 521.7222,-37.983 130.4289,65.3151 251.0366,193.2544 275.6169,382.9234 36.6598,282.8796 -152.4133,516.9135 -409.6881,567.0498 -143.028,27.8703 -183.9746,-8.986 -300.263,-29.8631 93.4265,120.1133 429.5612,130.7926 620.5249,-2.376 375.1469,-261.6103 314.4579,-831.1335 -113.2298,-1001.1178 -102.6162,-40.7876 -225.7663,-49.8872 -337.4334,-24.3717 -106.3632,24.3068 -211.7224,76.7988 -257.2497,145.7384z"/>
   <path class="fil0" d="M1600.5869 1148.75c32.2156,-37.4448 56.8478,-70.8285 34.0923,-125.9075 -16.6991,-50.0463 -139.2306,-51.9961 -292.5758,-299.6518 34.4316,9.8903 130.4192,47.2401 285.7653,112.9213 98.5105,41.6504 268.5783,29.7357 306.7391,107.0061 64.5066,130.6059 -117.1212,236.0072 -212.1347,332.7286 -84.0663,85.5737 -180.1554,222.5567 -168.2942,346.1207 9.9016,103.1585 70.9997,150.8085 106.9242,209.1638 -205.3348,-62.5406 -224.7094,-276.5764 -245.007,-322.5299 115.8135,-56.0986 217.9184,-151.1819 170.6337,-276.2387 -5.8486,-15.4637 -11.2459,-27.0432 -19.3568,-45.0127l33.214 -38.5999z"/>
   <path class="fil0" d="M2309.387 474.0746c-3.5343,-3.1828 -7.7805,-13.0585 -9.6946,-10.4853l-35.7491 -63.8751c-27.8606,-80.1448 -54.674,-142.5896 -114.9945,-206.0856 -26.8418,-28.2567 -197.292,-172.6581 -238.246,-193.3567 103.0505,-5.6936 302.0894,79.4556 376.5277,125.2825 179.9963,110.814 93.968,200.785 22.1565,348.5202z"/>
   <path class="fil0" d="M1601.9872 1233.2595c47.2847,125.0568 -61.1022,234.5014 -176.9165,290.6 -339.7055,164.544 -380.6246,441.4159 -222.8124,628.471 -585.7864,-269.33 156.1392,-786.1257 102.0496,-889.2144 -53.4767,-98.2134 -314.0334,-335.853 -415.764,-483.2838 -83.4656,-120.9632 -17.7828,-191.4361 -2.0975,-310.4877 38.5967,-188.5845 322.8051,-138.6868 489.2461,-184.4446 300.763,-82.6791 767.4395,-210.3335 810.7036,215.4629 14.6527,144.1969 24.5438,242.4565 128.3809,299.4513 119.9307,65.8306 189.0058,27.6414 318.9947,25.5114 -77.5773,53.2161 -165.7372,87.4529 -290.9629,77.0659 -193.8624,-16.0765 -292.6229,-143.0629 -324.1907,-329.2154 -80.7122,37.2597 -186.189,2.919 -318.1473,-26.4481 -251.7956,-56.0369 -495.1645,-36.0283 -409.7726,238.6032 25.7744,82.8885 267.6911,332.6361 311.2889,447.9285z"/>
   <path class="fil0" d="M-0 1333.128c124.1834,-47.5843 280.0547,-159.0022 521.7222,-37.983 130.4297,65.3151 251.0366,193.2544 275.6169,382.9234 36.6607,282.8796 -152.4133,516.9135 -409.6881,567.0498 -143.028,27.8703 -183.9746,-8.986 -300.2622,-29.8631 93.4265,120.1133 429.5612,130.7926 620.5249,-2.376 375.1461,-261.6103 314.4571,-831.1335 -113.2306,-1001.1178 -102.6154,-40.7876 -225.7663,-49.8872 -337.4326,-24.3717 -106.3641,24.3068 -211.7232,76.7988 -257.2505,145.7384z"/>
  </g>
 </g>
</svg>
